<svg xmlns="http://www.w3.org/2000/svg" viewBox="0 0 520 120">
  <g transform="translate(4 4) scale(1.1)" fill="#fff">
    <path d="M12 76 39 17c3.8-8.2 15.4-8.4 19.5-.4L85 68c3.2 6.2-1.3 13.5-8.2 13.5H64L48.8 50.8 36.2 76c-2 4-6.1 6.5-10.6 6.5h-7.8c-4.8 0-7.8-3.6-5.8-6.5Z"/>
    <path d="M23 68c20.8-4.4 40.6-11.7 59-27-9 17.2-28.4 29.1-59 31Z" stroke="#061637" stroke-width="3"/>
    <path d="M31 78V68h7v10h-7Zm10 0V63h7v15h-7Zm10 0V56h7v22h-7Z" fill="#061637"/>
    <path d="m50 25 2.6 7.4L60 35l-7.4 2.6L50 45l-2.6-7.4L40 35l7.4-2.6L50 25Z" fill="#061637"/>
  </g>
  <text x="128" y="54" fill="#fff" font-family="Arial, Helvetica, sans-serif" font-size="43" font-weight="800" letter-spacing="10">ANIRA</text>
  <text x="130" y="79" fill="#fff" font-family="Arial, Helvetica, sans-serif" font-size="15" font-weight="700" letter-spacing="2.4">CAREER INTELLIGENCE</text>
  <line x1="130" y1="96" x2="162" y2="96" stroke="#fff" stroke-width="2"/>
  <text x="176" y="101" fill="#fff" font-family="Arial, Helvetica, sans-serif" font-size="12" font-weight="700" letter-spacing="7">PLATFORM</text>
  <line x1="315" y1="96" x2="347" y2="96" stroke="#fff" stroke-width="2"/>
</svg>
