<svg xmlns="http://www.w3.org/2000/svg" viewBox="0 0 520 120">
  <defs>
    <linearGradient id="g" x1="10" y1="104" x2="100" y2="10">
      <stop stop-color="#7c3aed"/><stop offset=".48" stop-color="#2563eb"/><stop offset="1" stop-color="#14d8a5"/>
    </linearGradient>
    <linearGradient id="a" x1="25" y1="88" x2="108" y2="48">
      <stop stop-color="#22c7d9"/><stop offset="1" stop-color="#35e29a"/>
    </linearGradient>
  </defs>
  <g transform="translate(4 4) scale(1.1)">
    <path d="M12 76 39 17c3.8-8.2 15.4-8.4 19.5-.4L85 68c3.2 6.2-1.3 13.5-8.2 13.5H64L48.8 50.8 36.2 76c-2 4-6.1 6.5-10.6 6.5h-7.8c-4.8 0-7.8-3.6-5.8-6.5Z" fill="url(#g)"/>
    <path d="M20 68c18-7 30-13.2 39-23 4.4 5 10.6 7.7 19 7.9-10.1 9-21.3 13.7-33.5 16.5C35.4 71.5 27.2 71 20 68Z" fill="#fff"/>
    <path d="M23 68c20.8-4.4 40.6-11.7 59-27-9 17.2-28.4 29.1-59 31Z" fill="url(#a)"/>
    <path d="M31 78V68h7v10h-7Zm10 0V63h7v15h-7Zm10 0V56h7v22h-7Z" fill="#fff"/>
    <path d="m50 25 2.6 7.4L60 35l-7.4 2.6L50 45l-2.6-7.4L40 35l7.4-2.6L50 25Z" fill="#fff"/>
  </g>
  <text x="128" y="54" fill="#061637" font-family="Arial, Helvetica, sans-serif" font-size="43" font-weight="800" letter-spacing="10">ANIRA</text>
  <text x="130" y="79" fill="#061637" font-family="Arial, Helvetica, sans-serif" font-size="15" font-weight="700" letter-spacing="2.4">CAREER INTELLIGENCE</text>
  <line x1="130" y1="96" x2="162" y2="96" stroke="#149e9b" stroke-width="2"/>
  <text x="176" y="101" fill="#149e9b" font-family="Arial, Helvetica, sans-serif" font-size="12" font-weight="700" letter-spacing="7">PLATFORM</text>
  <line x1="315" y1="96" x2="347" y2="96" stroke="#149e9b" stroke-width="2"/>
</svg>
